<svg width="137" height="20" viewBox="0 0 137 20" fill="none" xmlns="http://www.w3.org/2000/svg">
<g clip-path="url(#clip0_745_10516)">
<path d="M40.0843 16.8282C40.5311 16.8282 40.9186 16.5199 41.0191 16.0846L42.8087 8.33293C43.8207 3.88531 40.6121 0.106692 36.2932 0.106689H36.1421C32.6372 0.106689 29.9422 2.26482 29.2389 5.31159L26.5801 16.8282H30.2486C30.6949 16.8282 31.0822 16.5204 31.1831 16.0857L33.4453 6.34045C33.7569 5.02298 34.9622 4.184 36.0398 4.18401L36.0477 4.184C37.5901 4.18401 38.9946 5.67622 38.5299 7.66239L36.4168 16.8282H40.0843Z" fill="white"/>
<path d="M14.3981 0.51709L12.4368 9.01231C11.4248 13.46 14.6334 17.2386 18.9523 17.2386H19.1034C22.6083 17.2386 25.3032 15.0805 26.0066 12.0337L28.5298 1.10468C28.5991 0.804093 28.3709 0.51709 28.0624 0.51709H24.2347L21.8001 11.0048C21.4885 12.3223 20.2833 13.1613 19.2056 13.1613H19.1978C17.6554 13.1613 16.2509 11.6691 16.7156 9.68285L18.6933 1.10454C18.7626 0.803984 18.5343 0.51709 18.2259 0.51709H14.3981Z" fill="white"/>
<path d="M4.60202 16.4567C4.55173 16.6743 4.35795 16.8284 4.13464 16.8284H0.0419922L2.34568 6.97309C3.21623 3.18162 5.93096 0.516602 10.147 0.516602H12.9552L12.0496 4.4614C11.9995 4.6793 11.8057 4.83375 11.5821 4.83375L10.147 4.83376C8.47182 4.83376 7.09655 5.72472 6.65796 7.56133L4.60202 16.4567Z" fill="white"/>
<path d="M75.5151 16.8242L79.3021 16.8242C79.7483 16.8242 80.1361 16.5159 80.2364 16.0807L83.1483 3.46737C83.4978 1.96394 82.3852 0.523009 80.8415 0.522309L69.8705 0.517822C69.5033 0.517672 69.1682 0.727172 69.0075 1.05739L67.1352 4.90469H75.079L61.8115 16.8359H67.3793C67.7325 16.8359 68.0733 16.706 68.337 16.471L77.365 8.42085L75.5151 16.8242Z" fill="white"/>
<path d="M57.4533 13.0572L63.128 0.516256L67.0703 0.508881C67.4248 0.508217 67.6576 0.879131 67.5028 1.19807L60.7035 15.2024C60.2221 16.194 59.2166 16.8235 58.1144 16.8235H53.0964L54.6625 7.82804L50.5755 15.3232C50.0713 16.248 49.102 16.8235 48.0487 16.8235H42.541L46.3007 0.523999H50.095C50.4088 0.523999 50.6381 0.820438 50.5593 1.12423L47.4599 13.0616L54.0947 1.80797C54.6864 0.791789 55.7942 0.294828 56.72 0.318691C57.7241 0.344572 59.0407 1.07432 58.9049 2.83548L57.4533 13.0572Z" fill="white"/>
<path d="M87.5033 19.9897C87.8398 19.9891 88.151 19.8126 88.3242 19.5246L99.3098 1.24685C99.5019 0.92713 99.2723 0.520048 98.899 0.520048H95.0737L89.1264 10.4642L88.2528 0.95009C88.2304 0.703615 88.0239 0.514826 87.7762 0.51427L84.0333 0.505859L85.9033 15.7486L83.377 19.9975L87.5033 19.9897Z" fill="white"/>
</g>
<rect x="102" y="0.5" width="35" height="16.25" rx="2" fill="#DDC3FF"/>
<path d="M129.175 12.6099C128.317 12.6099 127.62 12.3936 127.085 11.9609C126.55 11.5209 126.256 10.9306 126.205 10.1899H127.69C127.749 10.5199 127.914 10.7876 128.185 10.9929C128.464 11.1909 128.794 11.2899 129.175 11.2899C129.63 11.2899 129.989 11.1983 130.253 11.0149C130.524 10.8243 130.66 10.5676 130.66 10.2449C130.66 10.0543 130.594 9.90028 130.462 9.78294C130.33 9.66561 130.161 9.57394 129.956 9.50794C129.758 9.44194 129.479 9.37227 129.12 9.29894C128.563 9.17427 128.108 9.04594 127.756 8.91394C127.411 8.78194 127.111 8.55827 126.854 8.24294C126.605 7.92761 126.48 7.49494 126.48 6.94494C126.48 6.49761 126.59 6.10527 126.81 5.76794C127.037 5.42327 127.353 5.15927 127.756 4.97594C128.167 4.78527 128.64 4.68994 129.175 4.68994C129.982 4.68994 130.634 4.89161 131.133 5.29494C131.639 5.69827 131.921 6.24828 131.98 6.94494H130.495C130.429 6.63694 130.286 6.40594 130.066 6.25194C129.853 6.09061 129.575 6.00994 129.23 6.00994C128.849 6.00994 128.541 6.09794 128.306 6.27394C128.079 6.44261 127.965 6.66627 127.965 6.94494C127.965 7.15028 128.035 7.31894 128.174 7.45094C128.313 7.57561 128.489 7.67461 128.702 7.74794C128.922 7.82127 129.215 7.89828 129.582 7.97894C130.125 8.11094 130.565 8.24661 130.902 8.38594C131.239 8.51794 131.529 8.73428 131.771 9.03494C132.02 9.32828 132.145 9.73161 132.145 10.2449C132.145 10.7363 132.028 11.1616 131.793 11.5209C131.558 11.8729 131.217 12.1443 130.77 12.3349C130.323 12.5183 129.791 12.6099 129.175 12.6099Z" fill="#171716"/>
<path d="M122.833 12.6099C122.239 12.6099 121.707 12.4633 121.238 12.1699C120.776 11.8693 120.413 11.4219 120.149 10.8279C119.885 10.2339 119.753 9.50794 119.753 8.64994C119.753 7.79194 119.885 7.06594 120.149 6.47194C120.413 5.87794 120.776 5.43428 121.238 5.14094C121.707 4.84027 122.239 4.68994 122.833 4.68994C123.596 4.68994 124.223 4.90994 124.714 5.34994C125.205 5.78994 125.55 6.41327 125.748 7.21994H124.263C124.131 6.80194 123.94 6.49761 123.691 6.30694C123.442 6.10894 123.156 6.00994 122.833 6.00994C122.356 6.00994 121.971 6.22261 121.678 6.64794C121.385 7.07327 121.238 7.74061 121.238 8.64994C121.238 9.55927 121.385 10.2266 121.678 10.6519C121.971 11.0773 122.356 11.2899 122.833 11.2899C123.156 11.2899 123.442 11.1946 123.691 11.0039C123.94 10.8059 124.131 10.4979 124.263 10.0799H125.748C125.55 10.8866 125.205 11.5099 124.714 11.9499C124.223 12.3899 123.596 12.6099 122.833 12.6099Z" fill="#171716"/>
<path d="M116.259 12.6099C115.665 12.6099 115.133 12.4633 114.664 12.1699C114.202 11.8693 113.839 11.4219 113.575 10.8279C113.311 10.2339 113.179 9.50794 113.179 8.64994C113.179 7.79194 113.311 7.06594 113.575 6.47194C113.839 5.87794 114.202 5.43428 114.664 5.14094C115.133 4.84027 115.665 4.68994 116.259 4.68994C116.853 4.68994 117.381 4.84027 117.843 5.14094C118.312 5.43428 118.679 5.87794 118.943 6.47194C119.207 7.06594 119.339 7.79194 119.339 8.64994C119.339 9.50794 119.207 10.2339 118.943 10.8279C118.679 11.4219 118.312 11.8693 117.843 12.1699C117.381 12.4633 116.853 12.6099 116.259 12.6099ZM116.259 11.2899C116.735 11.2899 117.12 11.0773 117.414 10.6519C117.707 10.2266 117.854 9.55927 117.854 8.64994C117.854 7.74061 117.707 7.07327 117.414 6.64794C117.12 6.22261 116.735 6.00994 116.259 6.00994C115.782 6.00994 115.397 6.22261 115.104 6.64794C114.81 7.07327 114.664 7.74061 114.664 8.64994C114.664 9.55927 114.81 10.2266 115.104 10.6519C115.397 11.0773 115.782 11.2899 116.259 11.2899Z" fill="#171716"/>
<path d="M107.078 12.5V4.80005H109.223C109.898 4.80005 110.503 4.95772 111.038 5.27305C111.573 5.58838 111.991 6.03938 112.292 6.62605C112.593 7.20538 112.743 7.88005 112.743 8.65005C112.743 9.42005 112.593 10.0984 112.292 10.685C111.991 11.2644 111.573 11.7117 111.038 12.0271C110.503 12.3424 109.898 12.5 109.223 12.5H107.078ZM109.168 11.18C109.557 11.18 109.909 11.081 110.224 10.883C110.547 10.6777 110.8 10.3844 110.983 10.003C111.166 9.61438 111.258 9.16338 111.258 8.65005C111.258 8.13672 111.166 7.68938 110.983 7.30805C110.8 6.91938 110.547 6.62605 110.224 6.42805C109.909 6.22272 109.557 6.12005 109.168 6.12005H108.563V11.18H109.168Z" fill="#171716"/>
<defs>
<clipPath id="clip0_745_10516">
<rect width="100" height="20" fill="white"/>
</clipPath>
</defs>
</svg>
